<svg width="335" height="414" viewBox="0 0 335 414" fill="none" xmlns="http://www.w3.org/2000/svg">
<path d="M75.6584 142.233C66.8179 150.545 25.0723 167.298 22.3588 167.684C21.3466 167.891 20.2983 167.839 19.3118 167.532C18.3252 167.225 17.4327 166.673 16.7175 165.927C16.0977 165.218 15.6387 164.382 15.3723 163.479C15.1058 162.575 15.0381 161.625 15.1738 160.692C15.3095 159.76 15.6454 158.868 16.1584 158.078C16.6714 157.288 17.3493 156.619 18.1457 156.115C28.4285 149.46 46.4664 136.992 53.9358 130.48C59.777 125.395 39.8968 80.1934 51.465 73.481C70.2598 62.584 86.0983 132.408 75.6584 142.233Z" fill="#DF3636"/>
<g opacity="0.1">
<path d="M75.6584 142.233C66.8179 150.545 25.0723 167.298 22.3588 167.684C21.3466 167.891 20.2983 167.839 19.3118 167.532C18.3252 167.225 17.4327 166.673 16.7175 165.927C16.0977 165.218 15.6387 164.382 15.3723 163.479C15.1058 162.575 15.0381 161.625 15.1738 160.692C15.3095 159.76 15.6454 158.868 16.1584 158.078C16.6714 157.288 17.3493 156.619 18.1457 156.115C28.4285 149.46 46.4664 136.992 53.9358 130.48C59.777 125.395 39.8968 80.1934 51.465 73.481C70.2598 62.584 86.0983 132.408 75.6584 142.233Z" fill="#050111"/>
</g>
<path d="M24.0723 167.682L14.1893 175.794C14.1893 175.794 5.26316 167.225 4.79186 166.154C4.79186 166.154 9.07639 160.713 14.7891 159.442L18.5595 158.942C19.0659 158.878 19.58 158.917 20.0709 159.057C20.5617 159.197 21.0193 159.435 21.4159 159.756L23.9866 161.855C24.4224 162.203 24.7759 162.642 25.0214 163.143C25.267 163.643 25.3986 164.191 25.4068 164.749C25.415 165.306 25.2996 165.858 25.0688 166.365C24.8381 166.873 24.4977 167.322 24.0723 167.682Z" fill="#FFB373"/>
<path d="M16.2021 174.195L5.14807 165.826L0.606471 170.111C0.407091 170.295 0.249806 170.52 0.145346 170.77C0.0408859 171.021 -0.0082798 171.291 0.00121307 171.562C0.010704 171.833 0.0785923 172.099 0.200306 172.341C0.322021 172.584 0.494693 172.797 0.706454 172.967L6.5477 177.68C7.16055 178.181 7.92007 178.469 8.71123 178.5C9.50239 178.531 10.2821 178.303 10.9322 177.851L16.2021 174.195Z" fill="#FFB373"/>
<path d="M53.9353 72.5088C41.553 81.335 61.5475 128.793 66.3604 156.657C67.6601 164.226 117.218 160.099 123.345 151.673L118.546 75.5366C118.613 73.4527 118.242 71.378 117.458 69.4462C116.673 67.5144 115.493 65.7683 113.993 64.3205C112.493 62.8727 110.706 61.7553 108.747 61.0403C106.789 60.3254 104.702 60.0287 102.622 60.1694C99.1657 60.3979 80.528 53.5712 53.9353 72.5088Z" fill="#DF3636"/>
<path opacity="0.1" d="M121.345 120.054C121.345 120.054 120.017 98.8028 118.36 86.5062C113.433 86.849 109.791 86.7347 108.363 85.9778C105.349 84.3068 101.75 79.1225 99.7935 73.7383C104.449 98.2458 121.345 120.054 121.345 120.054Z" fill="#050111"/>
<path d="M66.7609 157.685C66.7609 157.685 66.7609 173.124 62.6192 185.164C57.8919 198.703 78.6005 202.416 90.6401 194.632L98.4236 189.591C98.4236 189.591 102.194 188.991 129.187 174.252C129.758 173.938 131 171.039 129.272 163.869C127.93 158.257 128.458 157.657 125.216 152.887L100.68 159.314C100.68 159.314 82.5423 162.141 66.7609 157.685Z" fill="#263238"/>
<path d="M69.4735 360.273L77.2142 395.307C78.4567 395.649 91.496 397.506 90.9533 394.107C89.3108 383.71 85.7975 361.887 85.7975 361.887L69.4735 360.273Z" fill="#FFB373"/>
<path d="M72.1455 387.25C72.2132 387.221 72.271 387.174 72.3117 387.113C72.3523 387.052 72.374 386.98 72.374 386.907C72.374 386.834 72.3523 386.762 72.3117 386.701C72.271 386.64 72.2132 386.592 72.1455 386.564C71.9027 386.464 66.29 384.179 63.9049 385.136C63.6747 385.216 63.4641 385.344 63.2869 385.512C63.1096 385.679 62.9699 385.882 62.8767 386.107C62.7377 386.349 62.6795 386.629 62.7103 386.906C62.7411 387.184 62.8594 387.444 63.048 387.65C63.7336 388.435 65.6187 388.464 67.5468 388.192C69.1056 388.022 70.6452 387.706 72.1455 387.25ZM64.819 385.664C66.8951 385.664 68.9516 386.067 70.8744 386.85C68.1609 387.592 64.3619 388.078 63.5336 387.193C63.4336 387.078 63.3194 386.878 63.5336 386.393C63.6543 386.125 63.8746 385.915 64.1477 385.807C64.3727 385.737 64.6016 385.679 64.8332 385.636L64.819 385.664Z" fill="#DF3636"/>
<path d="M72.3017 387.065C72.3361 387.012 72.3545 386.95 72.3545 386.886C72.3545 386.823 72.3361 386.761 72.3017 386.708C72.3017 386.536 71.3305 382.58 69.2168 381.252C68.9102 381.076 68.5714 380.964 68.2205 380.923C67.8695 380.881 67.5138 380.91 67.1746 381.009C66.2034 381.238 66.032 381.781 65.9749 382.195C65.9749 383.909 69.9167 386.665 71.8304 387.236H71.9875L72.3017 387.065ZM68.8884 381.909C70.1637 383.04 71.061 384.536 71.4591 386.194C69.4739 385.322 66.6176 383.095 66.7318 382.08C66.7318 381.995 66.7318 381.738 67.3602 381.581H67.5887C68.0476 381.527 68.51 381.644 68.8884 381.909Z" fill="#DF3636"/>
<path d="M74.0579 384.181L88.4111 381.51C88.707 381.455 89.0129 381.506 89.2745 381.655C89.536 381.804 89.7362 382.041 89.8393 382.324L94.8522 393.678C95.2806 394.849 93.2383 396.663 93.1098 396.677C84.5407 399.162 65.7031 403.047 59.4619 404.075C53.2208 405.103 51.3784 399.048 53.8349 398.077C64.889 393.678 68.6451 389.508 71.7585 385.609C72.312 384.854 73.1359 384.342 74.0579 384.181Z" fill="#263238"/>
<g opacity="0.2">
<path d="M87.5264 372.684L85.7983 361.902L69.4742 360.273L72.8162 374.569L87.5264 372.684Z" fill="#050111"/>
</g>
<path d="M190.169 329.68L215.876 354.716C217.09 354.33 229.016 348.732 226.702 346.147C219.561 338.349 204.722 322.039 204.722 322.039L190.169 329.68Z" fill="#FFB373"/>
<path d="M207.193 350.76C207.232 350.698 207.253 350.626 207.253 350.553C207.253 350.48 207.232 350.408 207.193 350.346C207.149 350.287 207.09 350.241 207.022 350.213C206.954 350.185 206.879 350.177 206.807 350.189C206.55 350.189 200.609 351.403 199.166 353.559C199.014 353.76 198.905 353.992 198.849 354.238C198.792 354.484 198.788 354.74 198.838 354.987C198.859 355.265 198.967 355.528 199.147 355.741C199.326 355.954 199.568 356.105 199.838 356.173C200.837 356.458 202.422 355.444 203.879 354.159C205.092 353.137 206.202 351.999 207.193 350.76ZM200.209 353.459C201.943 352.318 203.884 351.528 205.922 351.131C204.065 353.245 201.166 355.716 199.995 355.416C199.837 355.416 199.638 355.273 199.538 354.759C199.51 354.615 199.513 354.468 199.545 354.326C199.577 354.183 199.637 354.049 199.723 353.931C199.87 353.746 200.033 353.574 200.209 353.416V353.459Z" fill="#DF3636"/>
<path d="M207.223 350.49C207.231 350.428 207.22 350.365 207.192 350.309C207.164 350.253 207.12 350.207 207.066 350.176C206.937 350.062 203.995 347.248 201.496 347.32C201.142 347.344 200.797 347.438 200.481 347.598C200.165 347.757 199.883 347.978 199.654 348.248C199.415 348.436 199.25 348.703 199.188 349C199.125 349.298 199.169 349.608 199.311 349.876C200.196 351.304 205.024 351.461 206.966 350.89L207.109 350.819L207.223 350.49ZM201.51 348.062C203.211 348.318 204.792 349.091 206.038 350.276C203.895 350.647 200.325 350.347 199.839 349.433C199.839 349.348 199.668 349.133 200.082 348.676L200.296 348.576C200.639 348.262 201.088 348.088 201.553 348.091L201.51 348.062Z" fill="#DF3636"/>
<path d="M207.137 347.133L217.663 337.036C217.88 336.827 218.165 336.702 218.466 336.684C218.766 336.666 219.064 336.755 219.305 336.936L229.731 343.677C230.731 344.419 230.016 347.047 229.916 347.147C224.075 353.945 210.493 367.499 205.837 371.783C201.182 376.068 196.326 372.026 197.854 369.841C204.666 360.115 205.523 354.559 205.98 349.604C206.037 348.663 206.451 347.779 207.137 347.133Z" fill="#263238"/>
<g opacity="0.2">
<path d="M212.063 330.151L204.708 322.082L190.17 329.68L200.809 339.806L212.063 330.151Z" fill="#050111"/>
</g>
<path d="M105.064 194.661C104.478 210.085 83.5412 253.216 79.271 279.966C76.0004 300.632 85.255 339.792 90.1537 361.772C90.3995 362.775 90.4142 363.821 90.1964 364.83C89.9787 365.84 89.5343 366.786 88.8969 367.599C88.8969 367.599 76.1575 369.812 72.1301 369.998C59.2765 370.598 49.2792 306.63 46.9084 290.991C42.9952 264.427 50.2933 218.069 66.803 173.124C69.5737 165.583 77.7857 168.125 88.0971 168.739C89.968 168.854 105.635 179.679 105.064 194.661Z" fill="#263238"/>
<path opacity="0.2" d="M93.4526 178.28C95.395 175.096 101.079 209.5 101.079 209.5L91.953 237.664C91.953 237.664 78.5567 202.717 93.4526 178.28Z" fill="#050111"/>
<path d="M129.086 171.681C186.456 309.4 213.82 314.499 210.492 325.138C210.492 325.138 200.295 333.193 197.781 336.35C191.84 343.833 146.367 296.089 138.655 282.265C121.445 251.373 100.622 217.44 90.6964 180.75C88.597 172.995 91.7819 164.454 100.694 159.327C102.308 158.384 123.316 157.842 129.086 171.681Z" fill="#263238"/>
<path d="M48.6092 23.6369C47.6206 23.514 46.6961 23.0818 45.9677 22.4021C45.2393 21.7225 44.7442 20.83 44.5532 19.8523C44.2223 17.8775 44.5222 15.8486 45.4101 14.0539C46.4227 11.4907 48.223 9.31538 50.5516 7.84131C53.6492 6.30773 57.185 5.90363 60.5488 6.69876C63.905 7.2986 67.147 8.44114 70.5461 8.95528C72.997 9.15279 75.4339 9.49616 77.844 9.98357C79.0415 10.2343 80.1681 10.7491 81.1415 11.4902C82.1149 12.2314 82.9108 13.1804 83.471 14.2681C84.3994 16.5532 83.3139 19.6666 80.9289 20.2522C84.3994 21.2519 89.498 21.9374 92.2401 24.351C94.9822 26.7647 96.3818 30.9349 94.5966 34.0769C93.334 36.2045 91.3695 37.8256 89.0409 38.6614C89.0409 38.6614 94.7537 51.615 85.9846 54.9997C78.0725 58.056 61.7056 58.6273 61.7056 58.6273C54.5219 54.1285 48.6092 23.6369 48.6092 23.6369Z" fill="#263238"/>
<path d="M38.1535 37.3894C37.5533 39.8237 37.5533 42.3673 38.1535 44.8016C38.9676 47.1581 41.3955 49.1719 43.8662 48.6149C41.8525 50.9857 43.0522 54.9131 45.5658 56.7555C48.0794 58.5978 51.3784 58.8692 54.4919 58.912C57.7778 58.9573 61.0635 58.8095 64.332 58.4693C66.1808 58.4647 67.9695 57.8129 69.3878 56.627C71.3872 54.5132 70.6303 51.0856 69.502 48.4006C66.4903 41.8395 62.6505 35.6912 58.0766 30.1057C55.5916 26.8923 49.5076 19.0802 44.5232 21.151C39.5389 23.2219 38.8248 33.0192 38.1535 37.3894Z" fill="#263238"/>
<path d="M78.9563 55.1987C77.7476 51.3218 76.9764 47.3218 76.6569 43.2734L66.2884 55.4272C68.7591 59.6261 71.0585 64.8389 66.6883 68.1523C65.8763 68.757 65.2145 69.5403 64.7538 70.4418C64.2932 71.3433 64.0462 72.3386 64.0319 73.3508C64.0312 73.9516 64.1227 74.5488 64.3032 75.1218C64.6588 76.2981 65.3119 77.3627 66.1994 78.2127C67.087 79.0626 68.1788 79.6692 69.3694 79.9737C70.5599 80.2781 71.8089 80.2702 72.9955 79.9506C74.1821 79.6311 75.2661 79.0107 76.1428 78.1495C80.9986 73.4794 83.198 69.8661 84.1834 67.3953C84.5287 66.4592 84.5868 65.4412 84.3502 64.4719C84.1136 63.5025 83.593 62.6258 82.8552 61.954C81.61 60.691 80.6078 59.2096 79.8989 57.5838L78.9563 55.1987Z" fill="#FFB373"/>
<path opacity="0.3" d="M78.9723 55.2279C78.6849 54.8669 78.4179 54.4903 78.1725 54.0996L66.9185 56.5703C70.9459 60.0979 77.4156 59.2268 79.8721 57.5701L78.9723 55.2279Z" fill="#050111"/>
<path d="M59.335 53.5581L58.2924 53.0296C54.979 50.3018 53.151 46.7742 50.7659 41.19C50.1375 39.7619 49.4948 38.1909 48.7665 36.4628C47.7799 34.1762 47.3257 31.6954 47.4382 29.2076C47.5023 27.9017 47.718 26.6077 48.0809 25.3516C50.6088 30.2359 51.9941 35.5916 53.6365 40.8045C54.8977 45.313 56.8179 49.6106 59.335 53.5581Z" fill="#263238"/>
<path d="M84.4565 40.9029C84.9006 44.4152 84.0243 47.9673 81.9976 50.8701C79.9709 53.7729 76.9383 55.8195 73.4881 56.6129H73.4024C70.7168 57.2208 67.918 57.1075 65.2903 56.2844C64.3068 55.9932 63.351 55.6156 62.434 55.1561C62.0484 54.9848 61.6914 54.7848 61.3486 54.5992C60.2599 53.998 59.2274 53.3002 58.2637 52.514C54.9504 49.7862 53.1223 46.2586 50.7372 40.6744C50.1088 39.2463 49.4661 37.6752 48.7378 35.9471C47.7512 33.6606 47.297 31.1798 47.4096 28.692C47.476 27.3863 47.6917 26.0926 48.0523 24.8359C48.2159 24.2805 48.4163 23.7366 48.6521 23.2078C49.8712 20.2206 51.9916 17.688 54.7179 15.9627C57.4442 14.2373 60.6406 13.4051 63.8622 13.5819C69.3892 13.8247 73.8594 17.2666 77.3013 21.9653C77.6441 22.4366 77.9583 22.9222 78.2725 23.3935C81.6026 28.7012 83.7146 34.6811 84.4565 40.9029Z" fill="#FFB373"/>
<path d="M67.0469 33.1779C67.3611 34.0777 68.0895 34.6061 68.6608 34.449C69.2321 34.2919 69.4606 33.335 69.1464 32.4353C68.8322 31.5355 68.0895 31.0071 67.5183 31.1642C66.947 31.3213 66.7899 32.3068 67.0469 33.1779Z" fill="#263238"/>
<path d="M77.0156 29.6507C77.3441 30.5647 78.0724 31.0789 78.6437 30.9218C79.2149 30.7647 79.4292 29.8078 79.1292 28.9081C78.8293 28.0083 78.0724 27.4799 77.5011 27.6512C76.9299 27.8226 76.7157 28.751 77.0156 29.6507Z" fill="#263238"/>
<path d="M73.262 33.293C74.7727 35.0629 76.5167 36.6196 78.4463 37.9203C78.1109 38.4047 77.6739 38.8103 77.1658 39.1087C76.6577 39.4072 76.0907 39.5913 75.5042 39.6484L73.262 33.293Z" fill="#FFD6B3"/>
<path d="M77.9012 44.7579C78.3531 44.676 78.7973 44.5566 79.2294 44.4009C79.2991 44.375 79.3567 44.3241 79.391 44.2581C79.4253 44.1921 79.4339 44.1158 79.415 44.0438C79.3837 43.9762 79.3283 43.9226 79.2597 43.8936C79.1911 43.8645 79.114 43.8621 79.0437 43.8867C77.9501 44.2944 76.7755 44.4371 75.6162 44.303C74.4568 44.169 73.3458 43.762 72.3741 43.1155C72.315 43.0863 72.2476 43.0784 72.1834 43.0932C72.1192 43.108 72.0621 43.1446 72.0217 43.1967C71.9814 43.2488 71.9603 43.3133 71.962 43.3792C71.9638 43.4451 71.9883 43.5084 72.0313 43.5583C72.8774 44.1456 73.834 44.5548 74.843 44.7611C75.8521 44.9673 76.8925 44.9662 77.9012 44.7579Z" fill="#263238"/>
<path d="M62.3193 32.5633C62.4339 32.5426 62.5388 32.4857 62.6185 32.4008C62.6982 32.3159 62.7485 32.2077 62.762 32.092C62.9831 31.2174 63.3826 30.3979 63.9357 29.6852C64.4887 28.9724 65.1831 28.3817 65.9754 27.9503C66.1073 27.8776 66.2061 27.7569 66.2513 27.6133C66.2965 27.4697 66.2847 27.3142 66.2182 27.1791C66.1864 27.1153 66.1422 27.0584 66.0884 27.0117C66.0345 26.965 65.972 26.9293 65.9043 26.9068C65.8367 26.8842 65.7653 26.8752 65.6942 26.8803C65.623 26.8853 65.5536 26.9044 65.4898 26.9363C64.5326 27.4468 63.6965 28.1576 63.0386 29.0201C62.3806 29.8826 61.916 30.8768 61.6766 31.9349C61.6602 32.0822 61.7017 32.23 61.7923 32.3473C61.8829 32.4645 62.0156 32.542 62.1622 32.5633C62.2139 32.575 62.2676 32.575 62.3193 32.5633Z" fill="#263238"/>
<path d="M78.344 23.8935C78.44 23.8706 78.529 23.8249 78.6036 23.7602C78.6782 23.6956 78.7361 23.6139 78.7724 23.5222C78.8192 23.38 78.8098 23.2252 78.746 23.0897C78.6823 22.9543 78.5691 22.8484 78.4296 22.7938C77.6085 22.4557 76.7158 22.3282 75.8328 22.423C74.9499 22.5178 74.1046 22.8318 73.3739 23.3365C73.2633 23.4217 73.1887 23.5453 73.1649 23.6828C73.1411 23.8203 73.1698 23.9618 73.2454 24.0792C73.2877 24.1382 73.3416 24.1882 73.4037 24.2261C73.4658 24.2639 73.5348 24.289 73.6068 24.2996C73.6787 24.3103 73.7521 24.3064 73.8225 24.2881C73.8929 24.2699 73.9589 24.2377 74.0166 24.1934C74.5999 23.8166 75.2661 23.5872 75.9577 23.525C76.6493 23.4628 77.3457 23.5697 77.9869 23.8364C78.0978 23.89 78.2219 23.9099 78.344 23.8935Z" fill="#263238"/>
<path d="M57.0495 43.0739C56.7067 43.8166 54.4216 40.7745 53.6076 40.7888C52.6426 40.79 51.682 40.9196 50.7512 41.1744C53.1506 46.7586 54.9643 50.2862 58.292 53.014C53.0283 50.475 48.577 46.5183 45.4384 41.5886C43.9013 38.7046 43.1648 35.4614 43.3054 32.1963C43.4461 28.9313 44.4587 25.7635 46.2382 23.0223C46.5095 22.6081 47.1236 22.6367 47.6663 22.7224C48.2091 22.8081 50.5227 22.7224 51.551 22.7224C52.2851 22.7704 52.9978 22.989 53.6325 23.3609C54.2673 23.7328 54.8064 24.2477 55.2071 24.8646C52.8792 33.0338 58.1063 40.8031 57.0495 43.0739Z" fill="#263238"/>
<path d="M48.7805 46.016C50.1453 47.7433 52.1367 48.8622 54.3218 49.1294C57.1782 49.4293 58.1637 46.6729 56.9354 44.1451C55.8072 41.8743 52.9651 38.9751 50.2515 39.8605C49.6612 40.0833 49.1352 40.4485 48.7201 40.9236C48.305 41.3988 48.0139 41.9692 47.8726 42.5841C47.7312 43.199 47.744 43.8392 47.9099 44.448C48.0758 45.0567 48.3896 45.615 48.8234 46.0731L48.7805 46.016Z" fill="#FFB373"/>
<path d="M74.4444 16.1248C75.4177 16.5756 76.2587 17.269 76.8867 18.1385C77.1929 18.5796 77.3461 19.109 77.3229 19.6455C77.2997 20.182 77.1013 20.6961 76.7581 21.1091C76.3672 21.4042 75.918 21.6128 75.4404 21.7212C74.9627 21.8295 74.4674 21.8351 73.9875 21.7375C71.1988 21.4903 68.4885 20.684 66.0182 19.3667C66.9455 19.7249 67.798 20.2529 68.5318 20.9235C68.8943 21.2632 69.1565 21.6958 69.29 22.1743C69.4235 22.6528 69.423 23.1587 69.2887 23.637C68.8603 24.851 67.4321 25.3365 66.1753 25.5508C61.8051 26.2791 57.3349 25.5508 52.9789 24.6796C50.8081 24.2797 48.2945 23.637 47.4091 21.609C46.3379 19.1811 48.4088 16.4247 50.7796 15.2536C54.499 13.4688 58.5968 12.6154 62.7196 12.7672C66.8423 12.919 70.8663 14.0713 74.4444 16.1248Z" fill="#263238"/>
<path d="M99.7665 73.7372C101.737 79.1214 105.336 84.3057 108.336 85.9767C109.692 86.7336 113.363 86.8479 118.333 86.5051C135.257 85.3054 166.891 78.5359 169.062 72.8517C170.904 68.0673 171.318 64.9253 170.975 62.8545L181.744 6.58428C181.991 5.28546 182.101 3.96431 182.072 2.64252L185.614 1.40001C184.21 0.751253 182.719 0.313312 181.187 0.100366C178.808 -0.220061 176.389 0.231384 174.286 1.38829C172.183 2.54519 170.507 4.34648 169.504 6.52716L161.721 23.1511C156.51 34.2552 153.383 46.2219 152.495 58.4557V58.6413C134.114 58.6413 102.323 59.3269 101.08 60.2409C97.5243 62.7688 97.8527 68.353 99.7665 73.7372Z" fill="#DF3636"/>
<path d="M171.332 411.188L118.961 392.85L246.597 28.4648L335.001 59.442L219.99 387.78C216.639 397.335 209.632 405.168 200.507 409.558C191.383 413.947 180.888 414.534 171.332 411.188Z" fill="#DF3636"/>
<g opacity="0.8">
<path d="M171.332 411.188L118.961 392.85L246.597 28.4648L335.001 59.442L219.99 387.78C216.639 397.335 209.632 405.168 200.507 409.558C191.383 413.947 180.888 414.534 171.332 411.188Z" fill="white"/>
</g>
<path d="M166.495 282.959L236.626 307.738L211.847 377.869L141.716 353.089L166.495 282.959Z" fill="#263238"/>
<path d="M194.982 202.34L265.112 227.119L240.333 297.25L170.202 272.47L194.982 202.34Z" fill="#263238"/>
<path opacity="0.2" d="M194.982 202.34L265.112 227.119L240.333 297.25L170.202 272.47L194.982 202.34Z" fill="white"/>
<path d="M223.484 121.705L293.614 146.484L268.835 216.615L198.704 191.835L223.484 121.705Z" fill="#263238"/>
<path opacity="0.4" d="M223.484 121.705L293.614 146.484L268.835 216.615L198.704 191.835L223.484 121.705Z" fill="white"/>
<path d="M251.966 41.0995L322.097 65.8789L297.317 136.009L227.187 111.23L251.966 41.0995Z" fill="#263238"/>
<path opacity="0.6" d="M251.966 41.0995L322.097 65.8789L297.317 136.009L227.187 111.23L251.966 41.0995Z" fill="white"/>
<path d="M173.417 400.661L118.675 391.592L181.8 10.6973L274.218 26.0216L217.319 369.241C215.664 379.229 210.108 388.151 201.875 394.043C193.642 399.936 183.405 402.316 173.417 400.661Z" fill="#DF3636"/>
<g opacity="0.8">
<path d="M173.417 400.661L118.675 391.592L181.8 10.6973L274.218 26.0216L217.319 369.241C215.664 379.229 210.108 388.151 201.875 394.043C193.642 399.936 183.405 402.316 173.417 400.661Z" fill="white"/>
</g>
<path d="M146.598 275.14L219.942 287.506L207.577 360.85L134.232 348.484L146.598 275.14Z" fill="#DF3636"/>
<path d="M160.817 190.831L234.161 203.197L221.795 276.542L148.451 264.176L160.817 190.831Z" fill="#DF3636"/>
<path opacity="0.2" d="M160.817 190.831L234.161 203.197L221.795 276.542L148.451 264.176L160.817 190.831Z" fill="white"/>
<path d="M175.037 106.521L248.382 118.887L236.016 192.231L162.672 179.865L175.037 106.521Z" fill="#DF3636"/>
<path opacity="0.4" d="M175.037 106.521L248.382 118.887L236.016 192.231L162.672 179.865L175.037 106.521Z" fill="white"/>
<path d="M189.241 22.2104L262.585 34.5762L250.219 107.921L176.875 95.5548L189.241 22.2104Z" fill="#DF3636"/>
<path opacity="0.6" d="M189.241 22.2104L262.585 34.5762L250.219 107.921L176.875 95.5548L189.241 22.2104Z" fill="white"/>
<path d="M172.518 391.363L117.019 391.52L115.962 5.42698L209.622 5.16992L210.579 353.074C210.596 358.088 209.625 363.056 207.721 367.694C205.817 372.332 203.017 376.55 199.483 380.106C195.948 383.661 191.747 386.486 187.121 388.418C182.494 390.349 177.532 391.35 172.518 391.363Z" fill="#DF3636"/>
<g opacity="0.8">
<path d="M172.518 391.363L117.019 391.52L115.962 5.42698L209.622 5.16992L210.579 353.074C210.596 358.088 209.625 363.056 207.721 367.694C205.817 372.332 203.017 376.55 199.483 380.106C195.948 383.661 191.747 386.486 187.121 388.418C182.494 390.349 177.532 391.35 172.518 391.363Z" fill="white"/>
</g>
<path d="M171.174 367.813C171.172 369.836 171.769 371.815 172.891 373.498C174.013 375.182 175.609 376.494 177.477 377.271C179.345 378.047 181.402 378.251 183.386 377.858C185.371 377.465 187.194 376.493 188.626 375.063C190.057 373.634 191.033 371.811 191.428 369.828C191.824 367.844 191.622 365.787 190.849 363.917C190.075 362.048 188.765 360.45 187.083 359.326C185.401 358.202 183.423 357.602 181.4 357.602C180.058 357.6 178.729 357.862 177.488 358.375C176.248 358.887 175.12 359.639 174.17 360.587C173.221 361.536 172.467 362.662 171.953 363.902C171.439 365.142 171.174 366.471 171.174 367.813Z" stroke="#DF3636" stroke-width="2" stroke-miterlimit="10"/>
<path d="M125.215 272.053H199.595V346.432H125.215V272.053Z" fill="#DF3636"/>
<path d="M125.215 186.549H199.595V260.928H125.215V186.549Z" fill="#DF3636"/>
<path opacity="0.2" d="M125.215 186.549H199.595V260.928H125.215V186.549Z" fill="#050111"/>
<path d="M125.215 101.045H199.595V175.424H125.215V101.045Z" fill="#DF3636"/>
<path opacity="0.4" d="M125.215 101.045H199.595V175.424H125.215V101.045Z" fill="#050111"/>
<path d="M125.215 15.5547H199.595V89.9342H125.215V15.5547Z" fill="#DF3636"/>
<path opacity="0.6" d="M125.215 15.5547H199.595V89.9342H125.215V15.5547Z" fill="#050111"/>
<path d="M192.026 5.38514C192.026 5.38514 191.769 14.4112 189.598 13.9542C187.402 13.7235 185.189 13.69 182.986 13.8542C182.471 13.869 181.961 13.7441 181.511 13.4927C181.061 13.2412 180.687 12.8726 180.43 12.426L176.145 5.28516L192.026 5.38514Z" fill="#FFB373"/>
<path d="M192.026 5.38439L185.642 1.41406H180.501C179.01 1.41512 177.542 1.77676 176.222 2.46811C174.901 3.15946 173.767 4.16001 172.917 5.38439H192.026Z" fill="#FFB373"/>
</svg>
