<svg width="344" height="473" viewBox="0 0 344 473" fill="none" xmlns="http://www.w3.org/2000/svg">
<path d="M186.742 218.275C183.701 214.764 182.62 207.656 184.348 202.409C185.886 197.737 189.141 196.123 191.949 198.307L224.591 99.1479L164.779 163.512C163.711 164.801 163.144 166.446 163.191 168.121C165.038 192.134 163.716 218.068 157.873 243.199C157.729 244.005 157.752 244.829 157.941 245.618C158.129 246.406 158.479 247.141 158.966 247.773L185.099 277.985C185.258 278.248 185.49 278.456 185.766 278.582C186.042 278.708 186.349 278.746 186.65 278.691C186.951 278.636 187.231 278.492 187.455 278.275C187.679 278.059 187.838 277.78 187.911 277.475C197.054 257.079 208.434 243.477 220.355 235.694C221.008 235.233 221.555 234.63 221.957 233.93C222.359 233.229 222.606 232.448 222.68 231.643C223.217 213.518 226.333 108.993 226.556 101.397L193.915 200.556C196.241 204.341 196.9 210.477 195.362 215.148C193.648 220.41 189.789 221.798 186.742 218.275Z" fill="url(#paint0_linear_2112_1063)"/>
<path d="M241.759 227.374L245.635 97.1276L242.742 97.7776L243.705 94.8528L224.631 99.1607L164.82 163.525C163.752 164.814 163.185 166.459 163.231 168.134C165.078 192.147 163.757 218.081 157.913 243.212C157.77 244.018 157.793 244.842 157.981 245.63C158.17 246.419 158.519 247.154 159.006 247.786L185.14 277.997C185.684 278.56 186.352 278.98 187.09 279.222C187.828 279.465 188.614 279.524 189.386 279.395L203.391 276.244C204.161 276.022 204.881 275.638 205.505 275.116C206.129 274.594 206.643 273.946 207.014 273.213C216.149 252.815 227.529 239.213 239.456 231.441C240.105 230.975 240.648 230.368 241.046 229.664C241.445 228.961 241.688 228.178 241.759 227.374Z" fill="url(#paint1_linear_2112_1063)"/>
<path opacity="0.15" d="M214.473 210.861C216.017 206.173 215.357 200.037 213.026 196.269L245.667 97.1099L242.774 97.7599L211.084 194.028C208.238 191.822 205.026 193.441 203.488 198.112C201.758 203.369 202.823 210.471 205.869 213.993C208.916 217.516 212.749 216.101 214.473 210.861Z" fill="black"/>
<path d="M241.761 227.375L245.637 97.1289L213.003 196.263C215.335 200.031 215.994 206.167 214.451 210.855C212.726 216.094 208.861 217.499 205.815 213.977C202.768 210.455 201.701 203.36 203.434 198.096C204.972 193.424 208.184 191.805 211.03 194.011L243.674 94.8435L183.86 159.189C182.786 160.473 182.215 162.119 182.263 163.794C184.111 187.808 182.789 213.742 176.948 238.92C176.803 239.726 176.825 240.55 177.011 241.34C177.198 242.129 177.545 242.865 178.03 243.5L204.158 273.7C204.32 273.952 204.549 274.149 204.819 274.268C205.089 274.387 205.388 274.424 205.681 274.373C205.974 274.322 206.248 274.187 206.472 273.982C206.695 273.777 206.859 273.512 206.943 273.218C216.077 252.82 227.458 239.218 239.385 231.446C240.047 230.987 240.605 230.383 241.016 229.678C241.427 228.974 241.682 228.187 241.761 227.375Z" fill="url(#paint2_linear_2112_1063)"/>
<path opacity="0.25" d="M177.024 241.075C176.868 240.367 176.864 239.63 177.012 238.913C182.842 213.769 184.161 187.843 182.328 163.788C182.293 162.892 182.445 161.994 182.774 161.156L163.687 165.45C163.351 166.301 163.192 167.211 163.219 168.121C165.074 192.137 163.745 218.069 157.909 243.202C157.77 243.925 157.778 244.666 157.934 245.378L177.024 241.075Z" fill="white"/>
<path opacity="0.15" d="M206.827 273.512C206.703 273.754 206.52 273.959 206.297 274.107C206.074 274.255 205.818 274.341 205.555 274.356C205.292 274.37 205.032 274.314 204.8 274.192C204.568 274.069 204.372 273.886 204.233 273.659L178.097 243.456C177.544 242.761 177.176 241.929 177.026 241.038L157.926 245.374C158.08 246.255 158.445 247.078 158.986 247.77L185.119 277.981C185.666 278.545 186.337 278.965 187.077 279.209C187.818 279.453 188.607 279.513 189.382 279.384L203.378 276.23C204.817 275.813 206.054 274.838 206.827 273.512Z" fill="black"/>
<path d="M139.526 274.929L180.928 322.782C181.472 323.344 182.14 323.764 182.878 324.007C183.616 324.249 184.402 324.309 185.174 324.179L199.176 321.008C199.933 320.795 200.635 320.402 201.223 319.86C201.811 319.318 202.27 318.642 202.56 317.89L210.312 294.341C210.524 293.563 210.556 292.748 210.405 291.962C210.253 291.177 209.924 290.444 209.442 289.822L168.054 241.928C167.51 241.365 166.842 240.945 166.104 240.703C165.366 240.46 164.579 240.401 163.808 240.53L149.8 243.69C149.043 243.903 148.342 244.296 147.753 244.839C147.165 245.381 146.707 246.056 146.416 246.808L138.648 270.407C138.437 271.187 138.406 272.003 138.559 272.788C138.711 273.574 139.043 274.308 139.526 274.929Z" fill="url(#paint3_linear_2112_1063)"/>
<path opacity="0.4" d="M202.423 318.252C201.904 319.341 200.872 319.464 200.012 318.468L158.629 270.612C158.13 269.993 157.8 269.245 157.672 268.445L138.578 272.737C138.709 273.536 139.039 274.282 139.534 274.904L180.936 322.756C181.48 323.319 182.148 323.738 182.886 323.981C183.624 324.224 184.41 324.283 185.182 324.154L199.176 321.008C199.872 320.811 200.523 320.463 201.083 319.987C201.643 319.512 202.1 318.92 202.423 318.252Z" fill="white"/>
<path opacity="0.15" d="M167.763 241.694L167.715 241.678L167.586 241.636L167.468 241.532C167.412 241.479 167.348 241.436 167.278 241.405L167.05 241.256L166.873 241.197C166.761 241.134 166.646 241.077 166.527 241.028C165.67 240.625 164.709 240.499 163.77 240.667L149.766 243.819C149.009 244.033 148.308 244.427 147.72 244.969C147.132 245.511 146.673 246.185 146.381 246.937L138.654 270.411C138.426 271.183 138.394 271.999 138.562 272.779L157.671 268.446C157.498 267.663 157.528 266.843 157.758 266.066L165.512 242.509C165.842 241.507 166.516 241.089 167.208 241.317C167.315 241.334 167.419 241.368 167.515 241.418C167.607 241.5 167.69 241.593 167.763 241.694Z" fill="black"/>
<path opacity="0.15" d="M243.721 94.8579L224.632 99.1605L164.828 163.528C164.336 164.095 163.95 164.75 163.692 165.46L182.787 161.168C183.042 160.451 183.43 159.789 183.928 159.219L243.721 94.8579Z" fill="black"/>
<path opacity="0.15" d="M213.002 196.261L245.644 97.1022L242.751 97.7522L211.061 194.02C208.215 191.814 205.003 193.433 203.465 198.105C203.429 198.213 203.396 198.314 203.358 198.431L213.002 196.261Z" fill="black"/>
<path d="M277.316 249.035C276.428 251.734 274.249 252.221 272.444 250.136C271.522 248.944 270.891 247.54 270.6 246.037C270.31 244.533 270.37 242.973 270.774 241.482C271.492 239.301 273.066 238.587 274.597 239.498C288.699 188.929 274.398 119.164 241.471 81.104C225.11 62.1957 206.667 53.9014 189.537 57.7564C173.36 61.4059 160.086 75.4957 151.913 97.6094C153.095 99.8393 153.381 102.473 152.71 104.957C151.824 107.648 149.643 108.143 147.878 106.071C146.956 104.878 146.326 103.473 146.038 101.968C145.749 100.463 145.811 98.9021 146.219 97.4112C146.975 95.1131 148.673 94.431 150.278 95.5797C158.801 73.3777 172.454 59.2184 189.131 55.4645C196.679 53.8276 204.47 54.2764 211.707 56.7648C222.528 60.3269 233.274 68.023 243.232 79.5256C276.909 118.453 291.366 190.103 276.435 241.484C277.692 243.759 278.009 246.475 277.316 249.035Z" fill="#455A64"/>
<path d="M303.099 157.011C301.543 154.988 300.839 152.396 301.142 149.8L182.757 12.9748C181.683 14.4737 179.992 14.4822 178.537 12.7991C177.615 11.6065 176.985 10.2007 176.697 8.69606C176.408 7.19138 176.47 5.63018 176.878 4.13928C177.763 1.44847 179.945 0.953203 181.75 3.03861C182.54 4.07212 183.118 5.26222 183.451 6.53913C183.784 7.81603 183.864 9.15402 183.687 10.4746L302 147.192C303.061 145.569 304.809 145.496 306.318 147.234C307.239 148.427 307.869 149.832 308.157 151.337C308.445 152.841 308.384 154.402 307.977 155.893C307.091 158.584 304.926 159.085 303.099 157.011Z" fill="#455A64"/>
<path d="M155.119 103.119C155.51 101.931 155.553 100.657 155.242 99.4597C154.93 98.2621 154.279 97.1941 153.37 96.3909C152.461 95.5877 151.336 95.0852 150.136 94.9472C148.936 94.8091 147.715 95.0415 146.628 95.6151C145.541 96.1887 144.637 97.0776 144.03 98.1696C143.423 99.2615 143.14 100.507 143.217 101.75C143.294 102.992 143.728 104.175 144.463 105.148C145.198 106.122 146.202 106.843 147.348 107.22C148.109 107.472 148.914 107.566 149.716 107.496C150.519 107.426 151.304 107.193 152.025 106.812C152.747 106.431 153.392 105.909 153.923 105.275C154.454 104.642 154.86 103.909 155.119 103.119Z" fill="#455A64"/>
<path d="M181.775 1.90688C184.974 2.9601 186.682 6.50395 185.59 9.82228C184.498 13.1406 181.018 14.9768 177.819 13.9236C174.619 12.8704 172.911 9.32656 174.004 6.00823C175.096 2.6899 178.575 0.853659 181.775 1.90688Z" fill="#455A64"/>
<path d="M310.879 153.969C311.27 152.78 311.313 151.507 311.002 150.309C310.69 149.112 310.039 148.044 309.13 147.241C308.221 146.437 307.096 145.935 305.896 145.797C304.695 145.659 303.475 145.891 302.388 146.465C301.301 147.038 300.397 147.927 299.79 149.019C299.183 150.111 298.9 151.357 298.977 152.599C299.054 153.841 299.487 155.024 300.223 155.998C300.958 156.972 301.962 157.693 303.108 158.07C304.644 158.576 306.326 158.428 307.784 157.659C309.241 156.89 310.354 155.562 310.879 153.969Z" fill="#455A64"/>
<path d="M279.594 247.219C279.985 246.03 280.028 244.757 279.716 243.559C279.405 242.362 278.754 241.294 277.845 240.491C276.936 239.687 275.81 239.185 274.61 239.047C273.41 238.909 272.19 239.141 271.103 239.715C270.016 240.288 269.112 241.177 268.505 242.269C267.897 243.361 267.615 244.607 267.692 245.849C267.769 247.091 268.202 248.274 268.938 249.248C269.673 250.222 270.677 250.943 271.823 251.32C273.359 251.826 275.041 251.678 276.499 250.909C277.956 250.14 279.069 248.812 279.594 247.219Z" fill="#455A64"/>
<path d="M166.42 458.172C167.429 458.077 167.443 460.539 166.824 461.736C165.021 465.139 160.004 468.798 152.673 470.412C145.342 472.027 130.989 470.103 126.631 469.942C122.273 469.78 114.78 471.986 110.489 472.632C102.593 473.896 97.186 471.717 94.6034 469.175C94.179 468.66 93.8646 468.064 93.6795 467.423C93.4944 466.782 93.4426 466.11 93.5272 465.449C93.6079 462.449 93.8635 461.844 94.1998 461.871L166.42 458.172Z" fill="#37474F"/>
<path d="M95.0208 453.168C94.258 456.724 94.0224 460.372 94.3214 463.996C95.2361 466.229 97.6842 467.494 99.6347 468.113C104.8 469.727 109.858 469.458 115.534 468.207C119.192 467.256 122.961 466.803 126.739 466.862C131.232 467.117 141.132 468.113 145.638 468.207C149.843 468.27 154.015 467.464 157.893 465.839C160.865 464.494 165.385 461.4 166.38 459.114C167.362 453.733 166.811 450.518 163.69 448.689C160.569 446.859 155.713 446.375 149.23 445.891C147.279 445.743 144.831 445.635 143.849 445.514C139.922 445.084 136.249 444.788 133.277 444.6C130.74 444.619 128.231 444.072 125.932 442.999C124.879 442.526 124.027 441.697 123.524 440.658C122.906 439.313 122.919 437.269 121.708 437.147C121.708 437.147 99.5001 440.927 97.7111 441.183C95.5858 441.317 96.9444 444.29 95.0208 453.168Z" fill="#455A64"/>
<path d="M145.53 445.272C146.204 445.795 146.759 446.455 147.158 447.209C147.604 448.025 147.948 448.892 148.18 449.792C148.476 450.922 147.077 451.137 146.539 449.792C146.134 448.704 145.596 447.669 144.939 446.712C144.474 446.053 143.793 445.577 143.015 445.367L141.885 445.246C142.194 444.479 144.67 444.748 145.53 445.272Z" fill="#FAFAFA"/>
<path d="M135.51 444.142C135.882 444.096 136.26 444.129 136.619 444.238C136.978 444.347 137.31 444.529 137.594 444.774C138.326 445.399 138.871 446.214 139.168 447.128C139.56 448.217 139.857 449.338 140.056 450.478C140.137 451.204 138.428 451.177 138.24 450.384C138.006 449.35 137.714 448.331 137.366 447.33C137.178 446.832 136.29 444.909 135.106 444.721H134.568C134.568 444.465 134.904 444.29 135.133 444.236L135.51 444.142Z" fill="#FAFAFA"/>
<path d="M129.63 443.927C130.152 444.016 130.627 444.282 130.975 444.681C131.374 445.214 131.683 445.809 131.89 446.443C132.249 447.605 132.422 448.818 132.401 450.034C132.401 450.976 130.72 450.72 130.666 450.102C130.714 448.455 130.324 446.826 129.536 445.38C129.153 444.785 128.638 444.288 128.029 443.927C128.029 443.766 128.325 443.739 128.487 443.766C128.87 443.799 129.252 443.853 129.63 443.927Z" fill="#FAFAFA"/>
<path d="M95.4777 417.185C95.4777 417.185 97.3878 437.618 97.8721 442.339C98.0335 443.846 100.885 444.451 102.351 445.029C104.182 445.712 105.886 446.694 107.396 447.935C111.135 451.634 113.946 452.508 116.193 446.011C116.269 445.697 116.411 445.402 116.61 445.147C116.809 444.892 117.06 444.682 117.347 444.532C117.633 444.382 117.948 444.295 118.271 444.276C118.594 444.257 118.918 444.308 119.219 444.424C120.457 444.84 121.762 445.023 123.067 444.962C123.268 444.827 123.147 444.532 123.067 444.33C122.49 443.621 122.071 442.797 121.839 441.913C121.607 441.029 121.567 440.106 121.721 439.205C122.367 430.851 122.717 422.471 123.188 414.104L95.4777 417.185Z" fill="#FFD6B9"/>
<path d="M11.3798 400.788C14.0701 396.565 18.1055 385.198 21.5221 373.159L46.5686 384.741C46.5686 384.741 31.2341 412.572 29.4854 415.087C26.6068 419.257 11.3798 400.788 11.3798 400.788Z" fill="#FFD6B9"/>
<path d="M3.13467 409.788C3.13467 409.545 3.02705 407.555 3.13467 407.313C3.69962 405.174 5.01784 404.622 6.72616 403.385C8.44035 402.224 10.0155 400.87 11.4207 399.349C11.9857 398.569 12.0933 398.152 12.9811 397.802C14.1298 397.441 15.3434 397.335 16.5375 397.49C17.7315 397.646 18.8773 398.06 19.8951 398.704C24.7779 401.273 26.271 404.367 25.9886 407.716C25.7733 410.272 25.5716 413.662 27.818 415.182C28.7596 415.814 31.0059 412.68 31.0059 412.68C32.3511 415.007 29.6608 417.28 28.6519 422.001C28.0624 424.61 28.0166 427.311 28.5174 429.938C29.0151 434.067 29.5801 434.054 31.7861 434.35C33.6827 434.592 39.0499 434.229 42.3185 436.516C46.8248 439.663 45.6141 443.847 45.6141 443.847C45.0357 445.434 40.1394 453.155 22.2491 450.276C17.0568 449.442 6.10741 441.277 6.32264 440.511C6.40993 439.733 6.40993 438.948 6.32264 438.17C6.25538 436.341 6.17465 434.511 6.09394 432.682C6.16496 430.937 6.06585 429.189 5.79801 427.463C5.465 426.043 5.24016 424.599 5.12544 423.145C4.78916 419.473 4.43945 415.787 4.10317 412.115C3.9283 411.079 2.9867 410.837 3.13467 409.788Z" fill="#455A64"/>
<path d="M0.873911 409.061C-0.88822 410.77 0.187891 415.787 2.55533 421.679C3.60454 424.369 5.55498 428.848 4.97657 433.677C4.39816 438.506 4.30399 440.78 5.55497 443.093C7.49196 446.631 17.9033 451.164 24.0237 452.577C20.3213 447.381 18.1623 441.244 17.7957 434.874C17.177 424.221 16.3699 417.388 11.5005 412.639C5.35321 406.613 0.873911 409.061 0.873911 409.061Z" fill="black"/>
<path d="M45.5726 443.927C45.5726 443.927 41.9811 450.653 28.0858 450.424C22.638 450.344 19.7325 447.734 19.598 439.408C19.4365 429.427 18.6295 419.338 15.4011 414.388C12.1728 409.438 7.03437 407.03 3.03931 407.38C2.11292 407.676 1.32475 408.297 0.819839 409.129C0.819839 409.129 4.85525 407.784 11.0294 412.976C15.6164 416.783 16.8539 424.732 16.7732 434.592C16.7732 438.843 16.4907 443.658 17.7417 446.887C18.3113 448.306 19.2054 449.572 20.3523 450.583C21.4992 451.595 22.8671 452.323 24.3463 452.711C31.8656 454.823 42.1694 451.366 44.7789 448.165C45.224 447.565 45.5267 446.872 45.6642 446.137C45.8017 445.403 45.7703 444.648 45.5726 443.927Z" fill="#37474F"/>
<path d="M28.9465 432.548C29.5067 432.946 29.9034 433.534 30.063 434.202C30.1224 435.053 29.9514 435.905 29.5679 436.667C29.1845 437.429 28.6027 438.074 27.8839 438.534C27.0499 439.058 26.3235 438.87 27.6552 437.121C28.5022 435.746 28.9494 434.163 28.9465 432.548Z" fill="#FAFAFA"/>
<path d="M28.2203 427.382C28.2203 427.382 28.6507 427.664 28.7718 429.05C28.7718 429.79 27.6688 432.789 26.216 433.502C24.7633 434.215 25.5435 432.534 26.216 431.713C27.1914 430.433 27.8755 428.954 28.2203 427.382Z" fill="#FAFAFA"/>
<path d="M28.6914 421.679C28.6914 421.679 29.1622 421.8 28.6914 423.71C28.0188 424.925 26.9509 425.875 25.6649 426.4C24.7367 426.508 24.3197 426.05 25.4228 425.216C26.3106 424.517 28.5166 422.593 28.6914 421.679Z" fill="#FAFAFA"/>
<path d="M39.7226 398.017C39.7226 398.017 52.0306 376.589 70.5128 344.064C73.363 339.505 75.3382 334.455 76.3372 329.173C77.5748 323.792 84.018 296.446 84.018 296.446L90.8513 340.835C89.5218 346.58 88.707 352.432 88.4166 358.322C88.4166 365.653 89.3448 376.791 91.4163 391.883C94.5773 414.952 96.057 427.247 96.057 427.247C97.6846 428.417 99.7023 430.058 111.069 429.937C115.116 429.656 119.065 428.558 122.677 426.709C122.677 426.709 124.681 402.698 125.515 385.965C126.282 370.509 127.547 353.049 128.206 343.727C129.443 326.241 129.833 318.667 130.008 291.092C130.197 262.481 128.017 220.392 128.017 220.392H47.4841C47.4841 220.392 41.5116 230.44 43.1527 255.083C42.5205 279.161 40.3817 323.147 40.3817 323.147C34.8936 329.482 31.0734 337.19 27.307 350.91C23.1371 366.164 20.5813 375.015 17.2722 386.14C23.8231 385.992 37.3282 393.444 39.7226 398.017Z" fill="url(#paint4_linear_2112_1063)"/>
<path opacity="0.2" d="M33.2119 392.165L34.3822 392.932C41.1079 381.323 58.2046 351.905 63.6793 341.09C69.3289 330.006 73.3509 313.165 78.7045 288.63C79.4309 285.348 80.1573 281.904 80.9374 278.367L81.2737 276.82L80.7088 272.784L79.5654 278.044C79.0946 280.29 78.6103 282.456 78.1395 284.594C72.3958 311.107 68.2662 328.984 62.4283 340.485C56.9805 351.219 40.0049 380.489 33.2119 392.165Z" fill="black"/>
<path opacity="0.2" d="M118.628 220.392H120.041C120.901 232.579 121.386 247.779 121.493 264.781C124.372 263.436 127.425 260.49 129.416 254.572C129.416 255.715 129.416 256.872 129.524 258.042C127.977 261.718 125.092 264.67 121.453 266.301C121.762 314.726 119.435 377.732 116.072 429.13C115.615 429.251 115.131 429.359 114.647 429.453C119.274 359.304 121.977 267.31 118.628 220.392Z" fill="black"/>
<path opacity="0.2" d="M84.0706 296.675L79.5913 264.876C79.5913 264.876 69.0723 264.069 56.4146 253.536C56.4146 253.536 58.0826 262.952 76.0267 269.409L80.3311 300.159L77.0221 326.214C77.0221 326.214 83.9899 297.307 84.0706 296.675Z" fill="black"/>
<path d="M28.5166 150.201C33.4312 140.848 38.907 131.801 44.9139 123.11C51.6396 113.236 70.5925 116.868 70.6194 116.868L61.5936 144.04L45.9631 173.633L58.5535 192.088L48.6668 207.033C48.6668 207.033 28.8529 187.851 23.284 181.852C17.4596 175.57 18.1187 172.678 20.513 166.638C22.3424 162.038 23.6338 159.792 28.5166 150.201Z" fill="#FFD6B9"/>
<path d="M32.9676 166.073C30.7212 164.607 26.0536 160.128 24.7084 156.752C31.2324 142.802 41.9666 124.697 44.8855 121.213C48.3963 117.083 52.7546 114.487 64.2151 114.487L62.5337 143.771L48.1945 171.521C43.6211 171.427 37.5007 169.033 32.9676 166.073Z" fill="#263238"/>
<path d="M67.0272 116.022C67.7717 115.969 68.4737 115.655 69.0099 115.136C69.5462 114.617 69.8825 113.926 69.9596 113.183C70.3887 109.332 70.4157 105.446 70.0403 101.588C69.435 97.2974 62.7362 88.0294 61.9695 76.2863C61.2028 64.5432 77.1965 46.5318 90.9841 47.9577C104.772 49.3835 112.103 56.9029 115.815 67.0721C118.089 73.2732 115.815 74.4838 116.636 78.0619C118.358 85.0835 120.913 90.5044 117.591 103.929C116.394 108.839 112.21 110.399 108.175 111.354C105.236 111.941 102.235 112.149 99.2433 111.973C99.2433 111.973 98.9608 116.075 98.9608 119.183C98.906 120.236 99.2339 121.274 99.8841 122.104C100.534 122.935 101.463 123.503 102.499 123.702C97.1852 127.509 65.023 128.572 67.0272 116.022Z" fill="#FFD6B9"/>
<path d="M55.6063 74.7255C56.4402 74.9811 57.2474 74.1471 57.4088 73.3131C57.4642 72.4553 57.3917 71.5939 57.1936 70.7574C57.0955 69.2204 57.5643 67.7008 58.5112 66.4861C59.4581 65.2715 60.8175 64.4461 62.3319 64.1662C61.672 64.1186 61.0306 63.9263 60.4533 63.6029C59.876 63.2795 59.3771 62.833 58.9919 62.295C58.6067 61.7569 58.3447 61.1407 58.2245 60.49C58.1043 59.8393 58.1289 59.1702 58.2965 58.5301C58.2813 59.0077 58.4207 59.4775 58.6939 59.8696C58.9672 60.2617 59.3597 60.5552 59.8131 60.7063C60.2664 60.8574 60.7565 60.8582 61.2103 60.7084C61.6642 60.5587 62.0575 60.2665 62.3319 59.8752C62.774 58.8214 62.9674 57.6799 62.8969 56.5393C63.0607 55.7245 63.4026 54.9561 63.8982 54.289C64.3937 53.6219 65.0307 53.0726 65.7634 52.6805C66.4962 52.2885 67.3065 52.0633 68.1365 52.0211C68.9665 51.9789 69.7955 52.1208 70.5642 52.4366C70.5495 51.0838 70.9214 49.7549 71.6363 48.6063C72.3512 47.4577 73.3793 46.5372 74.5996 45.953C75.8341 45.3909 77.2011 45.1849 78.5464 45.3585C79.8917 45.532 81.1617 46.078 82.2131 46.935C82.3159 45.711 82.847 44.5625 83.713 43.6915C84.5791 42.8205 85.7246 42.2829 86.948 42.1732C88.183 42.108 89.4172 42.3152 90.5633 42.7801C91.7093 43.245 92.739 43.9563 93.5795 44.8635C93.2239 44.3396 93.0337 43.721 93.0337 43.0879C93.0337 42.4547 93.2239 41.8362 93.5795 41.3123C93.9625 40.8023 94.4858 40.4149 95.0854 40.1975C95.685 39.9801 96.335 39.9421 96.9558 40.0882C96.6616 40.1649 96.3854 40.2989 96.143 40.4824C95.9006 40.6659 95.6967 40.8954 95.5431 41.1577C95.3894 41.4201 95.289 41.7101 95.2475 42.0113C95.206 42.3125 95.2243 42.6189 95.3013 42.913C95.8124 44.5003 97.3728 44.5003 98.6372 44.0833C100.617 43.4313 102.748 43.4031 104.744 44.0026C105.769 44.3017 106.699 44.858 107.448 45.6185C108.197 46.379 108.739 47.3184 109.022 48.3474C110.531 48.1016 112.078 48.2498 113.514 48.7777C114.949 49.3056 116.223 50.1953 117.214 51.3605C118.124 52.4944 118.732 53.8404 118.981 55.2729C119.23 56.7053 119.113 58.1776 118.639 59.5524C118.605 59.6665 118.565 59.7788 118.518 59.8887C118.741 59.9539 118.957 60.0395 119.164 60.1442C120.12 60.6337 120.89 61.4226 121.357 62.3906C121.464 62.5789 121.531 62.7807 121.612 62.9556C121.978 63.9737 122.16 65.0485 122.15 66.1301C122.262 68.0494 121.711 69.9488 120.59 71.5107C120.137 72.0964 119.561 72.5766 118.904 72.918C118.247 73.2594 117.523 73.4539 116.783 73.488C116.996 71.3352 116.673 69.1632 115.842 67.1659C115.079 65.056 114.115 63.0245 112.963 61.0993C109.763 61.2286 106.625 60.1859 104.139 58.1669C103.386 59.0547 103.426 60.0097 102.283 60.6958C98.9197 62.7135 94.696 62.4444 90.7682 62.1216C91.2693 63.3445 91.3029 64.7092 90.8624 65.9552C90.5157 66.5572 90.0317 67.0688 89.4499 67.4483C88.369 68.2432 87.171 68.8649 85.8988 69.2912C87.6475 70.717 88.7774 73.2055 87.7685 75.2098C87.1431 76.1749 86.3717 77.0371 85.4818 77.7655C85.032 78.1258 84.6751 78.5886 84.4411 79.1152C84.207 79.6418 84.1026 80.2168 84.1367 80.7921C84.3384 81.8548 85.3204 82.6349 85.4818 83.6976C85.7508 85.1235 84.5268 86.3879 83.3834 87.2488C83.6 86.5701 83.5715 85.837 83.3027 85.1773C82.8588 84.4509 81.9575 84.3029 81.2446 84.007C80.2627 83.6034 80.2223 83.2403 79.765 82.3794C78.8851 80.6541 77.3788 79.3307 75.5547 78.6802C74.1011 78.2783 72.5492 78.4437 71.213 79.143C69.8769 79.8423 68.8564 81.0232 68.3582 82.4466C67.9459 84.3768 68.1192 86.3862 68.8559 88.2173C69.3959 90.4077 70.5816 92.3853 72.2591 93.8938C74.0481 95.2389 76.8864 95.5214 78.4467 93.8938C78.5386 95.8176 77.9144 97.7072 76.6946 99.1978C75.4749 100.688 73.7461 101.674 71.8421 101.965C71.1292 102.045 70.4969 102.166 69.9858 101.696C69.2512 99.601 68.1987 97.632 66.8651 95.8577C65.52 93.8265 62.8297 90.4771 61.4038 88.5132C59.978 86.5493 59.5072 83.4286 61.4038 81.7875C60.5402 81.6361 59.7645 81.167 59.2293 80.4724C58.6941 79.7779 58.4381 78.9083 58.5118 78.0346C58.7331 76.285 59.4104 74.6243 60.4757 73.219C59.9275 73.9526 59.161 74.4937 58.2861 74.7644C57.4112 75.0351 56.4729 75.0215 55.6063 74.7255Z" fill="#263238"/>
<path d="M107.301 96.6503C106.98 97.7223 106.249 98.6244 105.267 99.1608C104.285 99.6972 103.131 99.8246 102.055 99.5155C101.522 99.3681 101.023 99.1164 100.587 98.7749C100.152 98.4334 99.7884 98.0089 99.5182 97.526C99.248 97.043 99.0763 96.5113 99.013 95.9615C98.9497 95.4118 98.9961 94.8549 99.1495 94.3232L107.301 96.6503Z" fill="#9A4A4D"/>
<path d="M104.114 99.5692C103.71 98.5143 103.016 97.5954 102.111 96.9192C101.206 96.243 100.128 95.8373 99.002 95.749C99.0607 96.615 99.3856 97.4417 99.9322 98.1159C100.479 98.7901 101.22 99.2789 102.056 99.5154C102.727 99.7006 103.433 99.7191 104.114 99.5692Z" fill="#F28F8F"/>
<path d="M98.4901 80.6434C98.5824 80.9198 98.6191 81.2118 98.598 81.5024C98.5769 81.7931 98.4984 82.0767 98.3671 82.3368C98.2358 82.597 98.0542 82.8285 97.8329 83.0181C97.6116 83.2077 97.3549 83.3515 97.0777 83.4413C96.5069 83.6091 95.893 83.5449 95.3692 83.2629C94.8454 82.9808 94.4539 82.5036 94.2798 81.9348C94.1874 81.6584 94.1507 81.3665 94.1718 81.0758C94.1929 80.7852 94.2714 80.5016 94.4027 80.2414C94.5341 79.9813 94.7156 79.7497 94.9369 79.5601C95.1583 79.3706 95.415 79.2267 95.6922 79.1369C95.9748 79.052 96.2714 79.0237 96.565 79.0535C96.8586 79.0833 97.1434 79.1706 97.4032 79.3105C97.6631 79.4504 97.8928 79.6401 98.0793 79.8688C98.2657 80.0976 98.4053 80.3608 98.4901 80.6434Z" fill="#263238"/>
<path d="M96.3382 73.4211L91.6705 76.1114C91.3234 75.4778 91.2375 74.7338 91.4309 74.0378C91.6244 73.3418 92.082 72.7489 92.7063 72.3853C93.3264 72.0464 94.0549 71.965 94.7345 72.1588C95.4141 72.3526 95.9902 72.806 96.3382 73.4211Z" fill="#263238"/>
<path d="M115.385 74.4303L110.327 72.4798C110.442 72.1464 110.624 71.8397 110.861 71.5784C111.097 71.3171 111.385 71.1065 111.706 70.9594C112.026 70.8123 112.373 70.7317 112.726 70.7226C113.078 70.7134 113.429 70.7758 113.757 70.906C114.432 71.1688 114.978 71.6827 115.282 72.3399C115.585 72.9971 115.622 73.7464 115.385 74.4303Z" fill="#263238"/>
<path d="M113.703 79.6094C113.692 80.0093 113.564 80.3971 113.334 80.7242C113.104 81.0513 112.782 81.3033 112.409 81.4484C112.037 81.5935 111.629 81.6253 111.239 81.5399C110.848 81.4544 110.491 81.2555 110.213 80.9681C109.935 80.6807 109.748 80.3175 109.675 79.9242C109.603 79.5308 109.648 79.1248 109.805 78.7571C109.962 78.3893 110.225 78.0761 110.559 77.8569C110.894 77.6376 111.285 77.5219 111.685 77.5245C111.955 77.5279 112.221 77.5848 112.469 77.6916C112.717 77.7985 112.941 77.9532 113.128 78.147C113.316 78.3408 113.463 78.5698 113.562 78.8208C113.66 79.0718 113.708 79.3398 113.703 79.6094Z" fill="#263238"/>
<path d="M115.358 88.5669L107.906 92.1181L104.112 77.6175C107.031 76.5817 111.726 82.7559 115.358 88.5669Z" fill="#CA9B7A"/>
<path d="M99.2835 111.972C95.9925 111.734 92.7623 110.961 89.7196 109.685C85.5919 107.905 82.327 104.578 80.6264 100.417C81.0351 102.831 82.0134 105.113 83.4802 107.073C84.9469 109.034 86.8599 110.616 89.0605 111.689C92.188 113.335 95.605 114.358 99.1221 114.702L99.2835 111.972Z" fill="#CA9B7A"/>
<path d="M52.6745 116.222C45.4376 119.303 41.4291 130.064 42.3976 144.47C43.2854 157.787 44.1194 165.992 45.8681 180.103C46.7479 188.871 46.9817 197.692 46.5676 206.495C46.1722 213.48 45.4089 220.439 44.2808 227.344C44.2808 227.344 51.5849 239.572 76.7928 241.791C107.247 244.481 128.715 234.527 128.715 234.527C128.715 234.527 128.298 225.999 128.231 214.888C128.15 202.715 127.962 191.806 127.612 181.946C126.819 159.321 127.545 141.498 124.922 133.427C122.998 128.974 121.451 126.943 116.353 125.06C114.51 124.374 106.413 121.966 100.925 120.742C94.1989 119.235 70.3899 114.527 67.2961 114.514C64.2023 114.501 57.8129 114.016 52.6745 116.222Z" fill="#37474F"/>
<path d="M114.484 124.603C114.484 124.603 123.173 126.499 126.993 129.889C130.814 133.279 135.737 141.188 140.754 151.021C145.772 160.854 158.698 185.174 158.698 185.174C158.698 185.174 169.836 187.69 176.71 189.021C182.413 190.124 187.256 191.577 191.695 191.093C195.884 190.628 200.104 190.515 204.312 190.756C208.509 191.254 208.051 193.77 210.796 194.563C213.54 195.357 213.378 197.159 214.764 199.581C216.149 202.002 217.642 199.473 219.768 203.387C221.893 207.302 220.575 217.807 220.575 217.807L215.409 213.974C213.688 214.131 211.957 214.163 210.231 214.068C206.061 213.879 204.783 211.162 197.909 209.965C191.089 209.306 167.28 209.831 155.779 208.795C144.278 207.759 140.983 207.517 137.499 202.163C134.015 196.81 115.654 164.351 115.654 164.351C99.5123 137.933 114.484 124.603 114.484 124.603Z" fill="#FFD6B9"/>
<path d="M114.484 124.603C124.088 126.109 129.523 128.181 137.445 143.179C141.709 151.25 146.929 161.042 150.897 169.032C150.628 172.019 147.44 177.561 141.709 181.946C134.715 187.326 129.603 186.667 127.599 186.667C120.873 175.005 113.488 161.876 113.488 161.876C113.488 161.876 99.9429 139.265 114.484 124.603Z" fill="#263238"/>
<defs>
<linearGradient id="paint0_linear_2112_1063" x1="209.302" y1="286.339" x2="145.23" y2="210.401" gradientUnits="userSpaceOnUse">
<stop stop-color="#FF8079"/>
<stop offset="1" stop-color="#FF1E1E"/>
</linearGradient>
<linearGradient id="paint1_linear_2112_1063" x1="226.074" y1="292.055" x2="157.317" y2="198.806" gradientUnits="userSpaceOnUse">
<stop stop-color="#FF8079"/>
<stop offset="1" stop-color="#FF1E1E"/>
</linearGradient>
<linearGradient id="paint2_linear_2112_1063" x1="228.389" y1="282.034" x2="164.315" y2="206.076" gradientUnits="userSpaceOnUse">
<stop stop-color="#FF8079"/>
<stop offset="1" stop-color="#FF1E1E"/>
</linearGradient>
<linearGradient id="paint3_linear_2112_1063" x1="202.785" y1="330.56" x2="185.688" y2="269.167" gradientUnits="userSpaceOnUse">
<stop stop-color="#FF8079"/>
<stop offset="1" stop-color="#FF1E1E"/>
</linearGradient>
<linearGradient id="paint4_linear_2112_1063" x1="11.0414" y1="220.392" x2="116.714" y2="303.496" gradientUnits="userSpaceOnUse">
<stop stop-color="#FF8079"/>
<stop offset="1" stop-color="#FF1E1E"/>
</linearGradient>
</defs>
</svg>
