<svg width="40" height="40" viewBox="0 0 40 40" fill="none" xmlns="http://www.w3.org/2000/svg">
<path d="M35.1276 27.7239C34.3016 29.5559 33.9036 30.3739 32.8396 31.9939C31.3556 34.2539 29.2596 37.0699 26.6656 37.0939C24.3616 37.1139 23.7696 35.5939 20.6396 35.6119C17.5116 35.6279 16.8596 37.1219 14.5536 37.0999C11.9596 37.0759 9.97363 34.5339 8.48763 32.2719C4.33363 25.9519 3.89963 18.5319 6.46163 14.5859C8.28163 11.7839 11.1556 10.1439 13.8556 10.1439C16.6056 10.1439 18.3356 11.6519 20.6076 11.6519C22.8136 11.6519 24.1576 10.1399 27.3376 10.1399C29.7376 10.1399 32.2856 11.4499 34.0996 13.7099C28.1556 16.9679 29.1196 25.4559 35.1276 27.7239ZM24.9256 7.6159C26.0796 6.1319 26.9576 4.0399 26.6396 1.8999C24.7516 2.0299 22.5456 3.2299 21.2556 4.7959C20.0876 6.2159 19.1216 8.3219 19.4956 10.3699C21.5556 10.4319 23.6876 9.2019 24.9256 7.6159Z" fill="#1E1E1F"/>
</svg>
