<svg width="10" height="14" viewBox="0 0 10 14" fill="none" xmlns="http://www.w3.org/2000/svg">
<path d="M4.66667 0C2.08667 0 0 2.08667 0 4.66667C0 5.82667 0.333333 6.91333 0.94 7.89333C1.57333 8.92 2.40667 9.8 3.04667 10.8267C3.36 11.3267 3.58667 11.7933 3.82667 12.3333C4 12.7 4.14 13.3333 4.66667 13.3333C5.19333 13.3333 5.33333 12.7 5.5 12.3333C5.74667 11.7933 5.96667 11.3267 6.28 10.8267C6.92 9.80667 7.75333 8.92667 8.38667 7.89333C9 6.91333 9.33333 5.82667 9.33333 4.66667C9.33333 2.08667 7.24667 0 4.66667 0ZM4.66667 6.5C3.74667 6.5 3 5.75333 3 4.83333C3 3.91333 3.74667 3.16667 4.66667 3.16667C5.58667 3.16667 6.33333 3.91333 6.33333 4.83333C6.33333 5.75333 5.58667 6.5 4.66667 6.5Z" fill="#DF3636"/>
</svg>
