<svg width="40" height="40" viewBox="0 0 40 40" fill="none" xmlns="http://www.w3.org/2000/svg">
<path d="M29.8725 13.7206C25.2258 11.1216 17.7677 6.94825 6.19953 0.470973C5.41961 -0.0441062 4.52226 -0.111606 3.74695 0.150816L23.5946 19.9985L29.8725 13.7206Z" fill="#32BBFF"/>
<path d="M3.74699 0.150879C3.60168 0.200098 3.46027 0.259473 3.32504 0.331192C2.46886 0.794318 1.83972 1.68549 1.83972 2.8126V37.1845C1.83972 38.3117 2.46879 39.2028 3.32504 39.6659C3.46004 39.7375 3.60137 39.7971 3.74652 39.8467L23.5947 19.9986L3.74699 0.150879Z" fill="#32BBFF"/>
<path d="M23.5951 19.9985L3.74695 39.8466C4.5225 40.111 5.41984 40.0487 6.2 39.5261C17.4186 33.244 24.7927 29.1201 29.4932 26.499C29.624 26.4255 29.7522 26.3536 29.879 26.2825L23.5951 19.9985Z" fill="#32BBFF"/>
<path d="M1.83972 19.9985V37.1845C1.83972 38.3116 2.46879 39.2028 3.32504 39.6658C3.46004 39.7375 3.60137 39.7971 3.74652 39.8466L23.5947 19.9985H1.83972Z" fill="#2C9FD9"/>
<path d="M6.19961 0.470931C5.27344 -0.140632 4.18125 -0.12321 3.32507 0.331165L23.2935 20.2996L29.8725 13.7206C25.2259 11.1216 17.7678 6.94821 6.19961 0.470931Z" fill="#29CC5E"/>
<path d="M23.2936 19.6973L3.32507 39.6657C4.18132 40.12 5.27344 40.1462 6.19961 39.5259C17.4182 33.2439 24.7923 29.1199 29.4928 26.4988C29.6236 26.4253 29.7518 26.3534 29.8786 26.2823L23.2936 19.6973Z" fill="#D93F21"/>
<path d="M38.16 19.9984C38.16 19.046 37.6794 18.085 36.727 17.552C36.727 17.552 34.9458 16.5582 29.4862 13.5044L22.9922 19.9984L29.4925 26.4988C34.8922 23.467 36.7269 22.4447 36.7269 22.4447C37.6794 21.9118 38.16 20.9507 38.16 19.9984Z" fill="#FFD500"/>
<path d="M36.727 22.4449C37.6794 21.912 38.16 20.9509 38.16 19.9985H22.9922L29.4925 26.4989C34.8923 23.4672 36.727 22.4449 36.727 22.4449Z" fill="#FFAA00"/>
</svg>
