<svg width="40" height="40" viewBox="0 0 40 40" fill="none" xmlns="http://www.w3.org/2000/svg">
<path d="M34.9997 3.3335H24.9997C24.5576 3.3335 24.1337 3.50909 23.8212 3.82165C23.5086 4.13421 23.333 4.55814 23.333 5.00016V15.0002C23.333 15.4422 23.5086 15.8661 23.8212 16.1787C24.1337 16.4912 24.5576 16.6668 24.9997 16.6668H26.6663V20.0002H29.9997V16.6668H33.333V20.0002H36.6663V5.00016C36.6663 4.55814 36.4907 4.13421 36.1782 3.82165C35.8656 3.50909 35.4417 3.3335 34.9997 3.3335ZM29.9997 13.3335H26.6663V6.66683H33.333V13.3335H29.9997ZM4.99967 16.6668H14.9997C15.4417 16.6668 15.8656 16.4912 16.1782 16.1787C16.4907 15.8661 16.6663 15.4422 16.6663 15.0002V5.00016C16.6663 4.55814 16.4907 4.13421 16.1782 3.82165C15.8656 3.50909 15.4417 3.3335 14.9997 3.3335H4.99967C4.55765 3.3335 4.13372 3.50909 3.82116 3.82165C3.5086 4.13421 3.33301 4.55814 3.33301 5.00016V15.0002C3.33301 15.4422 3.5086 15.8661 3.82116 16.1787C4.13372 16.4912 4.55765 16.6668 4.99967 16.6668ZM6.66634 6.66683H13.333V13.3335H6.66634V6.66683ZM8.33301 26.6668V30.0002H4.99967V26.6668H8.33301ZM4.99967 33.3335H8.33301V36.6668H4.99967V33.3335ZM11.6663 30.0002V33.3335H8.33301V30.0002H11.6663ZM11.6663 26.6668H8.33301V23.3335H11.6663V20.0002H14.9997V26.6668H11.6663ZM8.33301 20.0002V23.3335H4.99967V20.0002H8.33301ZM23.333 25.0002V26.6668H21.6663V23.3335H18.333V30.0002H23.333V35.0002C23.333 35.4422 23.5086 35.8661 23.8212 36.1787C24.1337 36.4912 24.5576 36.6668 24.9997 36.6668H34.9997C35.4417 36.6668 35.8656 36.4912 36.1782 36.1787C36.4907 35.8661 36.6663 35.4422 36.6663 35.0002V25.0002C36.6663 24.5581 36.4907 24.1342 36.1782 23.8217C35.8656 23.5091 35.4417 23.3335 34.9997 23.3335H26.6663V20.0002H23.333V25.0002ZM33.333 26.6668V33.3335H26.6663V26.6668H33.333ZM14.9997 30.0002H18.333V33.3335H19.9997V36.6668H11.6663V33.3335H14.9997V30.0002ZM21.6663 10.0002H18.333V6.66683H21.6663V10.0002ZM18.333 13.3335H21.6663V20.0002H18.333V13.3335ZM8.33301 8.3335H11.6663V11.6668H8.33301V8.3335ZM28.333 8.3335H31.6663V11.6668H28.333V8.3335ZM31.6663 31.6668H28.333V28.3335H31.6663V31.6668Z" fill="#4285FA"/>
</svg>
