<svg width="21" height="20" viewBox="0 0 21 20" fill="none" xmlns="http://www.w3.org/2000/svg">
<path d="M9.36806 0.557222C9.73488 -0.186024 10.7947 -0.186026 11.1615 0.55722L13.5588 5.41469C13.7045 5.70983 13.9861 5.9144 14.3118 5.96173L19.6723 6.74066C20.4925 6.85985 20.82 7.86782 20.2265 8.44636L16.3476 12.2274C16.1119 12.4571 16.0044 12.7881 16.06 13.1125L16.9757 18.4514C17.1158 19.2683 16.2584 19.8912 15.5248 19.5056L10.7301 16.9849C10.4388 16.8317 10.0908 16.8317 9.79946 16.9849L5.00485 19.5056C4.27122 19.8912 3.41379 19.2683 3.5539 18.4514L4.46959 13.1125C4.52523 12.7881 4.41768 12.4571 4.18199 12.2274L0.303074 8.44636C-0.290443 7.86782 0.0370659 6.85985 0.857286 6.74066L6.21782 5.96173C6.54353 5.9144 6.8251 5.70983 6.97076 5.41469L9.36806 0.557222Z" fill="url(#paint0_linear_40_2432)"/>
<defs>
<linearGradient id="paint0_linear_40_2432" x1="7.7648" y1="6.24023" x2="14.7648" y2="18.7402" gradientUnits="userSpaceOnUse">
<stop stop-color="#FFA600"/>
<stop offset="1" stop-color="#FF6C10"/>
</linearGradient>
</defs>
</svg>
